# xmcd CD database file
#
# Track frame offsets:
#	150
#	14139
#	28531
#	55088
#	69697
#	88597
#	100453
#	112649
#	120282
#	136292
#	148351
#
# Disc length: 2210 seconds
#
# Revision: 1
# Processed by: cddbd v1.5.1PL2 Copyright (c) Steve Scherf et al.
# Submitted via: CDex 1.51
#
DISCID=9608a00b
DTITLE=Sophie Auster - Sophie Auster
DYEAR=2005
DGENRE=Jazz
TTITLE0=The Last Poem
TTITLE1=Close Your Eyes
TTITLE2=Word Heat
TTITLE3=The Door
TTITLE4=Le Pont Mirabeau
TTITLE5=Sailor Girl
TTITLE6=The Lover
TTITLE7=Western Wind
TTITLE8=The Swimmer
TTITLE9=Jitterbug Waltz
TTITLE10=Walking The Wire
EXTD=YEAR: 2005
EXTT0=
EXTT1=
EXTT2=
EXTT3=
EXTT4=
EXTT5=
EXTT6=
EXTT7=
EXTT8=
EXTT9=
EXTT10=
PLAYORDER=
